<svg xmlns="http://www.w3.org/2000/svg" width="144" height="35" viewBox="0 0 144 35" fill="none"><g clip-path="url(#clip0_16023_704)"><path d="M61.0515 19.1611C60.5102 19.1611 59.6688 19.2381 59.6688 18.6942L60.0844 14.7563H56.0156L55.6077 18.6814C55.5795 19.0021 55.264 19.1611 54.6611 19.1611C54.1198 19.1611 53.2783 19.2381 53.2783 18.6942L54.2865 9.0585C54.3147 8.73782 54.6303 8.5762 55.2332 8.5762C55.777 8.5762 56.6159 8.5018 56.6159 9.0431L56.2362 12.7732H60.2947L60.6847 9.0585C60.7155 8.73782 61.031 8.5762 61.6339 8.5762C62.1752 8.5762 63.0166 8.5018 63.0166 9.0431L62.0084 18.6814C61.9674 19.0021 61.6518 19.1611 61.0515 19.1611Z" fill="#02060C"></path><path d="M70.328 16.8317C70.5255 16.8317 70.4383 17.3448 70.4024 17.6809C70.3511 18.1529 70.3613 18.6942 69.3505 19.0046C67.9857 19.4202 66.054 19.3817 65.0432 18.3787C63.6502 16.9985 64.0017 13.6557 65.3203 12.3217C67.1751 10.4413 71.2207 10.8107 71.2207 13.3274C71.2207 15.6875 69.0247 16.3469 66.426 15.9749C66.5671 18.8558 70.2305 16.8317 70.328 16.8317ZM68.1474 12.9066C67.3162 12.9066 66.7749 13.4685 66.5235 14.5921C67.2931 14.5921 69.0478 14.6819 69.0478 13.6147C69.0478 13.1426 68.7477 12.9066 68.1474 12.9066Z" fill="#02060C"></path><path d="M76.6106 18.1247C75.646 19.5511 73.7476 19.6434 72.7933 18.4171C71.7671 17.1113 71.957 14.0893 73.0498 12.5013C74.1145 10.9749 75.9282 10.6875 77.2751 11.96C77.4598 11.3468 77.5675 11.2725 78.2525 11.2545C78.6245 11.2545 79.3043 11.2545 79.3043 11.629C78.8887 15.6491 78.7476 16.8522 78.7476 17.0164C78.7476 17.4602 79.0581 17.5757 79.4685 17.4525C79.7584 17.3653 79.8482 17.3166 79.6507 18.4787C79.5044 19.4587 77.0314 19.6998 76.6106 18.1247ZM76.5799 16.5854C76.8005 14.0918 76.7646 14.392 76.9724 13.3376C76.0565 12.5321 74.3864 12.609 74.3864 15.9441C74.3864 17.7578 75.7333 17.9092 76.5799 16.5752V16.5854Z" fill="#02060C"></path><path d="M82.1881 7.78091C82.7756 7.78091 83.617 7.67316 83.617 8.18625C82.6601 17.4012 82.4344 17.4833 83.1501 17.4833C83.617 17.4833 83.8556 16.9702 83.6016 18.4607C83.4374 19.4869 80.459 19.8794 80.459 17.332L81.4082 8.22216C81.4467 7.9297 81.7083 7.78091 82.1881 7.78091Z" fill="#02060C"></path><path d="M85.4056 13.0272C85.149 13.0272 85.0156 12.8476 85.0156 12.4859C85.0156 11.139 85.5005 11.2673 85.8879 11.2673C86.0828 9.42278 85.8366 9.35864 87.4066 9.35864C87.7735 9.35864 88.2634 9.46896 88.2634 9.82555L88.1121 11.2673H88.9997C89.5359 11.2673 89.1357 13.0272 88.3686 13.0272H87.9325C87.6503 15.6439 87.5101 16.9668 87.5118 16.9959C87.5118 17.491 87.8427 17.5577 88.3225 17.4474C88.6534 17.3704 88.7534 17.2678 88.5482 18.4736C88.3789 19.528 85.2722 19.923 85.2722 17.255C85.7724 12.391 85.8289 13.0272 85.4056 13.0272Z" fill="#02060C"></path><path d="M94.3971 17.3422C94.7383 13.7866 95.1077 12.981 93.9302 12.981C93.4684 12.981 93.0408 13.2666 92.6475 13.8379L92.1344 18.6788C92.0831 19.2099 91.2929 19.1585 90.767 19.1585C90.3976 19.1585 89.9102 19.0482 89.9102 18.6916L91.0056 8.27348C91.0723 7.57569 92.7603 7.7604 93.0143 7.92715C93.3299 8.12469 93.2708 7.81427 92.8245 12.1678C94.2021 10.6927 97.0215 10.6285 97.0215 13.0554L96.6367 16.9959C96.6367 17.4474 96.9368 17.5731 97.3576 17.4474C97.65 17.3602 97.7347 17.3217 97.5397 18.4736C97.3755 19.4946 94.3971 19.9307 94.3971 17.3422Z" fill="#02060C"></path><path d="M105.267 9.01745C106.737 8.34018 108.638 8.38636 109.995 8.79169C111.147 9.13289 111.216 9.5254 110.552 10.4002C109.985 11.1467 109.813 10.9672 109.551 10.844C108.54 10.3489 104.695 9.4587 104.695 14.6614C104.695 16.4161 105.447 17.2935 106.95 17.2935C109.238 17.2935 110.152 15.9646 110.152 16.6906C110.152 18.3735 109.895 18.7147 108.769 18.9995C107.032 19.4228 104.68 19.4561 103.394 18.2299C101.519 16.411 101.919 10.5567 105.267 9.01745Z" fill="#02060C"></path><path d="M111.476 15.9595C111.476 10.3309 116.606 10.549 118.03 11.9908C119.313 13.3043 119.038 16.5341 117.761 17.9964C116.137 19.8538 111.476 20.1231 111.476 15.9595ZM114.918 17.4987C116.242 17.4987 116.586 15.8928 116.586 14.5664C116.586 12.3807 114.775 12.6424 114.174 13.6711C113.643 14.5741 113.241 17.4833 114.918 17.4833V17.4987Z" fill="#02060C"></path><path d="M124.043 11.2673C124.58 11.2673 124.182 13.0272 123.412 13.0272H122.961L122.376 18.6711C122.325 19.2022 121.534 19.1509 121.006 19.1509C120.642 19.1509 120.149 19.0431 120.149 18.6839C120.824 12.178 120.857 13.0169 120.436 13.0169C120.18 13.0169 120.044 12.8374 120.044 12.4756C120.044 11.665 120.234 11.2571 120.616 11.2571C120.998 11.2571 120.911 11.4828 121.037 10.1308C121.17 8.65572 121.999 7.69626 123.487 7.69626C125.07 7.69626 125.085 8.25552 124.744 9.07902C124.518 9.61519 124.39 9.54079 124.195 9.49205C123.169 9.23551 123.276 10.0975 123.14 11.2571L124.043 11.2673Z" fill="#02060C"></path><path d="M128.93 11.2673C129.466 11.2673 129.064 13.0272 128.299 13.0272H127.848L127.26 18.6711C127.211 19.2022 126.419 19.1509 125.893 19.1509C125.526 19.1509 125.036 19.0431 125.036 18.6839C125.708 12.178 125.744 13.0169 125.321 13.0169C125.064 13.0169 124.931 12.8374 124.931 12.4756C124.931 11.665 125.121 11.2571 125.503 11.2571C125.885 11.2571 125.798 11.4828 125.923 10.1308C126.057 8.65572 126.886 7.69626 128.373 7.69626C129.954 7.69626 129.972 8.25552 129.628 9.07902C129.405 9.61519 129.276 9.54079 129.079 9.49205C128.053 9.23551 128.163 10.0975 128.027 11.2571L128.93 11.2673Z" fill="#02060C"></path><path d="M135.965 16.8317C136.165 16.8317 136.077 17.3448 136.042 17.6809C135.99 18.1529 136.001 18.6942 134.987 19.0046C133.622 19.4202 131.691 19.3817 130.68 18.3787C129.287 16.9985 129.641 13.6557 130.959 12.3217C132.814 10.4413 136.86 10.8107 136.86 13.3274C136.86 15.6875 134.664 16.3469 132.065 15.9749C132.204 18.8558 135.867 16.8317 135.965 16.8317ZM133.787 12.9066C132.954 12.9066 132.412 13.4685 132.163 14.5921C132.932 14.5921 134.687 14.6819 134.687 13.6147C134.687 13.1426 134.387 12.9066 133.787 12.9066Z" fill="#02060C"></path><path d="M144.069 16.8317C144.269 16.8317 144.182 17.3448 144.143 17.6809C144.092 18.1529 144.105 18.6942 143.092 19.0046C141.727 19.4202 139.795 19.3817 138.784 18.3787C137.391 16.9985 137.758 13.6557 139.061 12.3217C140.919 10.4413 144.962 10.8107 144.962 13.3274C144.962 15.6875 142.763 16.3469 140.164 15.9749C140.308 18.8558 143.974 16.8317 144.069 16.8317ZM141.888 12.9066C141.057 12.9066 140.516 13.4685 140.265 14.5921C141.034 14.5921 142.791 14.6819 142.791 13.6147C142.791 13.1426 142.49 12.9066 141.888 12.9066Z" fill="#02060C"></path><path d="M55.4336 22.3576C55.7273 22.3546 56.0195 22.4006 56.2981 22.4936C56.7496 22.6475 56.7471 22.7501 56.6085 23.0067C56.4905 23.2119 56.4597 23.1529 56.3238 23.0785C55.7491 22.7527 53.8995 22.45 53.8995 24.6998C53.8995 26.9497 55.7671 26.6496 56.3879 26.2981C56.5521 26.2032 56.5778 26.1596 56.6958 26.3597C57.0883 27.0267 54.705 27.4525 53.8174 26.4751C53.04 25.6131 52.7527 22.3576 55.4336 22.3576Z" fill="#02060C"></path><path d="M60.1996 27.0395C59.1504 27.0395 58.6758 26.3571 58.6758 25.2925C58.6758 24.2278 59.1555 23.5198 60.1945 23.5198C61.2335 23.5198 61.6953 24.2432 61.6953 25.2925C61.6953 26.3417 61.2617 27.0395 60.1996 27.0395ZM59.4788 26.2519C59.5676 26.3516 59.6764 26.4314 59.7983 26.486C59.9201 26.5406 60.052 26.5688 60.1855 26.5688C60.319 26.5688 60.451 26.5406 60.5728 26.486C60.6946 26.4314 60.8035 26.3516 60.8923 26.2519C61.2027 25.8312 61.2027 24.7332 60.8923 24.3099C60.8035 24.2102 60.6946 24.1305 60.5728 24.0759C60.451 24.0213 60.319 23.993 60.1855 23.993C60.052 23.993 59.9201 24.0213 59.7983 24.0759C59.6764 24.1305 59.5676 24.2102 59.4788 24.3099C59.176 24.7255 59.176 25.8312 59.4788 26.2519Z" fill="#02060C"></path><path d="M64.0818 26.8676C64.0818 23.607 64.1895 24.0457 63.8252 24.0457C63.6867 24.0457 63.6944 23.8943 63.6944 23.7686C63.6944 23.5121 63.815 23.5711 64.0869 23.5711C64.0869 22.9836 64.0202 22.4243 64.3896 22.1986C64.7591 21.9728 65.4158 21.9882 65.4158 22.2371C65.4158 22.3063 65.3671 22.5449 65.2798 22.5449C64.7308 22.5449 64.641 22.2755 64.641 23.5711C65.3235 23.5711 65.344 23.5018 65.344 23.8481C65.344 24.1047 65.2439 24.0457 64.641 24.0457C64.641 27.196 64.7514 27.0267 64.3845 27.0267C64.2408 27.0139 64.0818 26.9985 64.0818 26.8676Z" fill="#02060C"></path><path d="M67.5369 26.8676C67.5369 23.607 67.642 24.0457 67.2803 24.0457C67.1418 24.0457 67.1495 23.8943 67.1495 23.7686C67.1495 23.5121 67.2726 23.5711 67.5446 23.5711C67.5446 22.9836 67.4753 22.4243 67.8473 22.1986C68.2193 21.9728 68.8735 21.9882 68.8735 22.2371C68.8735 22.3063 68.8221 22.5449 68.7349 22.5449C68.1859 22.5449 68.0961 22.2755 68.0961 23.5711C68.7785 23.5711 68.7991 23.5018 68.7991 23.8481C68.7991 24.1047 68.699 24.0457 68.0961 24.0457C68.0961 27.196 68.2064 27.0267 67.8396 27.0267C67.6934 27.0139 67.5369 26.9985 67.5369 26.8676Z" fill="#02060C"></path><path d="M71.0369 26.6111C70.5008 26.0339 70.5085 24.5818 71.0369 23.9738C71.6116 23.3043 73.5382 23.0759 73.5382 25.236C73.5382 25.313 73.4048 25.4926 73.3202 25.4926H71.2422C71.3345 26.7573 72.4274 26.7086 73.0765 26.3417C73.2099 26.2724 73.2458 26.2211 73.3638 26.4084C73.7152 26.9985 71.7424 27.3781 71.0369 26.6111ZM72.943 25.0333C72.943 24.3407 72.6805 23.9944 72.1555 23.9944C71.5885 23.9944 71.2832 24.3407 71.2345 25.0333H72.943Z" fill="#02060C"></path><path d="M75.8983 26.6111C75.3621 26.0339 75.3698 24.5818 75.8983 23.9738C76.4704 23.3043 78.397 23.0759 78.397 25.236C78.397 25.313 78.2636 25.4926 78.1815 25.4926H76.1035C76.1933 26.7573 77.2887 26.7086 77.9378 26.3417C78.0712 26.2724 78.1071 26.2211 78.2251 26.4084C78.5766 26.9985 76.6038 27.3781 75.8983 26.6111ZM77.8044 25.0333C77.8044 24.3407 77.5418 23.9944 77.0168 23.9944C76.4507 23.9944 76.1437 24.3407 76.0958 25.0333H77.8044Z" fill="#02060C"></path><path d="M85.403 24.8563C85.403 24.4356 85.4671 23.9944 84.6795 23.9944C84.3197 23.9973 83.9666 24.0917 83.6534 24.2689C83.561 24.2689 83.4225 24.0123 83.4225 23.9405C83.4225 23.6839 84.305 23.5198 84.7308 23.5198C86.56 23.5198 85.757 25.372 85.9879 26.5983C86.0315 26.8317 86.0905 26.9164 85.9084 26.9702C85.4774 27.096 85.5595 26.8933 85.4492 26.547C85.2128 26.8136 84.8874 26.9851 84.5338 27.0295C84.1803 27.0739 83.8226 26.9881 83.5277 26.7881C83.4257 26.686 83.3458 26.5641 83.2928 26.4299C83.2397 26.2958 83.2147 26.1521 83.2193 26.0079C83.2238 25.8637 83.2579 25.722 83.3193 25.5914C83.3807 25.4609 83.4682 25.3443 83.5764 25.2489C84.0561 24.8923 84.5769 24.8743 85.403 24.8563ZM83.8099 26.0185C83.8099 26.606 84.5615 26.8548 85.403 26.1057V25.3361C84.7385 25.3284 83.8099 25.3361 83.8099 26.0185Z" fill="#02060C"></path><path d="M88.3635 26.8676C88.3635 24.4997 88.3635 24.2201 88.3301 23.9867C88.2968 23.7532 88.2249 23.6685 88.4096 23.6147C88.8355 23.4915 88.7662 23.6993 88.8689 24.0123C89.4563 23.3556 90.3004 23.4274 90.68 23.8019C91.0597 24.1765 90.9674 24.4074 90.9674 26.8804C90.9674 27.0113 90.8083 27.0267 90.6775 27.0267C90.3234 27.0267 90.4209 27.137 90.4209 24.6511C90.4209 23.8815 89.4563 23.7789 88.9202 24.4741C88.9202 27.1626 89.0202 27.0395 88.6303 27.0395C88.4524 27.0224 88.3635 26.9651 88.3635 26.8676Z" fill="#02060C"></path><path d="M95.4415 26.547C94.5461 27.4782 93.1172 27.1267 93.1172 25.2437C93.1172 24.3484 93.5405 23.5198 94.3999 23.5198C95.6467 23.5198 95.3876 24.7486 95.3876 22.1986C95.3876 22.0652 95.5441 22.0523 95.6749 22.0523C96.0495 22.0523 95.9315 21.7394 95.9315 26.0262C95.9242 26.3046 95.9509 26.5828 96.011 26.8548C96.011 26.9677 95.7544 27.0062 95.6903 27.0062C95.4876 27.0062 95.5133 26.7701 95.4415 26.547ZM93.6918 25.2309C93.6918 26.7701 94.7026 26.8574 95.3901 26.1057V24.3099C94.8617 23.8584 93.6918 23.7173 93.6918 25.2309Z" fill="#02060C"></path><path d="M101.341 26.8035C101.341 22.1575 101.229 22.3807 101.598 22.3807C102.037 22.3807 101.914 22.0626 101.914 26.5008C103.979 26.5008 103.856 26.3956 103.856 26.8035C103.856 27.0831 103.938 26.9985 101.531 26.9985C101.505 27.0015 101.479 26.9984 101.454 26.9896C101.429 26.9808 101.407 26.9664 101.388 26.9476C101.37 26.9288 101.356 26.906 101.348 26.881C101.34 26.856 101.338 26.8295 101.341 26.8035Z" fill="#02060C"></path><path d="M105.695 25.9723C105.695 23.4531 105.59 23.5454 105.951 23.5454C106.082 23.5454 106.239 23.5608 106.239 23.6916C106.239 26.0441 106.18 26.1673 106.413 26.3905C106.647 26.6137 107.293 26.6778 107.74 26.098C107.74 23.4428 107.629 23.5326 107.996 23.5326C108.129 23.5326 108.286 23.548 108.286 23.6788C108.286 26.0057 108.273 26.3392 108.319 26.5854C108.365 26.8317 108.422 26.9035 108.24 26.9574C107.801 27.0857 107.883 26.8497 107.781 26.5341C107.07 27.3576 105.695 27.1806 105.695 25.9723Z" fill="#02060C"></path><path d="M110.746 26.8676C110.746 24.4997 110.746 24.2201 110.713 23.9867C110.68 23.7532 110.61 23.6685 110.792 23.6147C111.218 23.4915 111.152 23.6993 111.254 24.0123C111.842 23.3556 112.686 23.4274 113.065 23.8019C113.445 24.1765 113.35 24.4074 113.35 26.8804C113.35 27.0113 113.194 27.0267 113.063 27.0267C112.709 27.0267 112.806 27.1421 112.806 24.6511C112.806 23.8815 111.842 23.7789 111.308 24.4741C111.308 27.1626 111.408 27.0395 111.018 27.0395C110.834 27.0139 110.746 26.9754 110.746 26.8676Z" fill="#02060C"></path><path d="M117.745 23.6121C118.086 23.7147 118.104 23.8122 117.973 24.0431C117.935 24.1072 117.881 24.197 117.814 24.1714C116.66 23.707 116.095 24.1842 116.095 25.2488C116.095 26.5649 116.865 26.8266 117.891 26.3776C117.963 26.3468 118.022 26.4264 118.066 26.4956C118.199 26.7137 118.184 26.8086 117.835 26.9318C117.294 27.1216 116.352 27.0985 115.893 26.6188C115.131 25.8081 115.305 22.8707 117.745 23.6121Z" fill="#02060C"></path><path d="M120.272 26.8676C120.272 21.7855 120.159 22.0523 120.529 22.0523C120.662 22.0523 120.819 22.0523 120.819 22.1986C120.819 25.0949 120.562 23.5198 121.827 23.5198C123.194 23.5198 122.871 24.8025 122.871 26.8548C122.871 26.9856 122.712 27.001 122.581 27.001C122.23 27.001 122.324 27.1139 122.324 24.6255C122.324 23.8225 121.355 23.8404 120.924 24.3304C120.785 24.4946 120.824 24.0944 120.824 26.8548C120.824 27.0626 120.272 27.0703 120.272 26.8676Z" fill="#02060C"></path><path fill-rule="evenodd" clip-rule="evenodd" d="M38.4141 14.7717H46.2796C46.7414 14.7717 47.1211 15.313 47.1211 15.9543V19.0046C47.1211 19.6485 46.7414 20.1898 46.2796 20.1898H38.3936C38.5475 18.3873 38.5544 16.5753 38.4141 14.7717Z" fill="#02060C"></path><path fill-rule="evenodd" clip-rule="evenodd" d="M2.80094 17.4012C2.80094 3.74808 20.0867 -1.53925 30.3484 6.157C30.7438 6.0201 31.155 5.9339 31.5721 5.90046C33.4243 5.80298 36.9595 10.0385 35.705 11.6008C34.6788 12.9733 31.5157 11.883 30.1073 10.8568C28.863 10.0154 28.8245 9.35351 28.8245 7.84761C27.8394 8.70959 28.9041 6.70344 27.96 6.88302C27.2776 6.9882 27.9241 14.0174 25.9077 11.3391C24.8481 9.8589 23.7271 7.69625 22.5444 6.26219C22.3238 6.04156 21.3592 4.85634 21.1796 4.91791C20.9384 5.01796 21.1001 5.65931 21.0385 5.87994C20.569 5.6234 19.8481 4.49718 19.4325 3.57106C19.353 3.39148 19.294 3.27091 19.1119 3.31452C18.8117 3.353 18.7527 4.09697 18.7117 4.43817C18.4218 7.33453 19.9508 11.6034 19.4531 11.7034C18.3551 11.9061 12.3494 8.62494 12.7317 8.83274C12.5521 8.77373 12.452 9.08928 12.3315 9.11493C12.1698 9.13289 10.705 8.2119 10.4664 8.08876C9.90458 7.80657 9.98411 7.94767 9.76349 8.00667C9.88406 8.24782 9.68396 8.06824 10.1842 8.97127C10.1842 8.97127 11.98 11.9959 12.0903 13.1657C12.1519 14.0841 7.35712 12.9887 7.11341 12.9451C6.86969 12.9015 6.57211 12.845 6.61315 13.2863C6.6542 13.6275 7.23398 14.1483 6.8543 14.1483C5.71526 14.1047 4.28888 13.7429 3.60392 14.0893C3.63983 14.51 3.7014 14.5203 4.76605 15.5541L7.11341 17.2807C7.01336 17.5603 5.98976 17.5372 6.0308 18.0221C6.11803 18.884 8.26015 18.5659 11.7902 19.4279C13.0447 19.7409 10.4279 23.3761 7.5367 24.5587C6.83121 24.8461 7.38791 25.4797 8.81941 25.4797C9.30171 25.4797 9.84558 25.2591 10.3843 25.2796C10.5529 25.3208 10.7244 25.3482 10.8974 25.3617C10.8974 25.3617 16.39 23.7224 17.2956 23.5659C17.9472 23.4043 16.7543 26.3699 16.7543 26.4982C16.331 27.7296 15.9538 28.7378 15.0508 29.7486C14.607 30.2104 15.0098 30.4105 15.3894 30.3309C16.1334 30.2104 17.1852 29.2278 17.5983 29.1662C17.8548 29.1457 17.7779 29.528 18.4013 28.9456C20.4536 27.1242 24.1965 23.7378 25.2432 23.5582L25.4638 23.5198C25.516 24.0405 25.5091 24.5655 25.4433 25.0847L25.0226 26.7907C24.8341 27.0536 24.7352 27.3702 24.7404 27.6937C24.8405 27.7142 24.902 27.7732 25.0226 27.7527C25.5844 29.079 26.0642 29.5203 26.5054 29.7819C26.8081 29.5254 26.8466 29.3792 26.9467 28.7173C27.1493 27.5321 27.1288 27.5936 27.7702 26.9908C27.8497 26.9318 29.0529 25.9646 29.5146 25.6465C32.7625 23.3889 32.6958 23.8276 32.0647 24.3022C31.6234 24.6639 29.2427 26.5906 29.1144 26.9523C29.0349 27.1319 29.0554 27.2319 29.294 27.0908C30.1663 26.6547 35.9821 22.3037 31.0898 26.3879C29.0375 28.1349 29.294 28.4402 31.4131 26.8112C31.6414 26.6573 35.9538 23.2863 31.7337 27.0523C30.8256 27.9579 30.8589 27.9246 30.4895 28.2555C29.6788 29.0662 30.9641 28.6326 33.6783 26.2878C35.1329 25.1077 32.7676 27.922 30.1278 29.9025C28.6732 30.9107 28.6091 29.8743 26.8979 30.6721C24.8181 31.6801 22.5586 32.2646 20.2509 32.3919C17.9432 32.5192 15.6332 32.1866 13.4551 31.4135C2.03132 27.786 2.86764 17.4012 2.80094 17.4012ZM35.4254 16.7778C38.0652 16.2981 36.7491 14.51 36.7491 13.3658C38.6988 16.7009 37.3597 17.7707 33.1575 17.6603L30.5921 17.8014C30.5511 18.2016 30.4305 18.7455 30.351 19.1457C29.8225 21.9035 28.7168 24.4844 26.177 25.7286C28.0344 24.3843 29.1093 23.2966 29.8507 20.3694C29.9508 20.0282 30.3304 18.1221 30.2714 17.804L25.256 17.8835C24.6532 19.0893 24.5223 22.7219 19.8174 26.6752C19.2555 27.137 17.1083 28.7814 16.567 29.0021C17.6052 28.3051 18.5912 27.5335 19.5172 26.6932C23.5629 22.9066 24.8764 18.7532 24.8097 17.863C21.6645 17.863 18.2396 17.4166 17.9292 17.4602C17.8097 18.004 17.6378 18.535 17.4161 19.0457C16.3233 21.6547 14.2966 22.8579 11.8286 23.802L8.81941 24.7845C9.43511 24.3766 16.6952 23.2119 17.588 17.4012C12.5598 17.1883 0.16369 12.9631 5.8897 14.7717C12.4187 16.7701 18.0729 17.1139 18.4603 17.0985C17.6214 14.3971 14.6019 12.0421 12.4905 10.136C11.4259 9.17137 11.4105 9.18933 12.511 10.0539C15.8025 12.6398 15.8179 12.8271 16.8646 13.9892C17.9574 15.1616 18.9169 17.2396 18.8528 17.0985C19.0349 17.2447 24.8045 17.3551 25.6332 17.2986C25.4536 13.3402 20.6665 7.78348 19.9148 5.67984C19.9995 5.77476 21.5952 8.30169 21.6003 8.30939C22.9857 10.5156 25.1714 13.5274 25.7948 16.2622C25.8538 16.5829 25.8948 17.0652 25.9538 17.3037C26.6465 17.3397 30.528 17.214 30.9513 17.1447C30.5511 11.7317 28.314 9.15341 28.2961 9.13032C28.4449 9.38687 30.6049 11.2442 31.2258 17.119C32.3751 17.1883 35.6537 16.7778 35.4254 16.7778ZM4.43768 14.2894C4.0503 14.1611 4.40946 14.274 4.43768 14.2894V14.2894ZM38.0447 14.7717C36.608 6.41355 28.763 0 19.294 0C8.81941 0 0.333008 7.84761 0.333008 17.5013C0.333008 27.155 8.81941 35 19.294 35C28.7861 35 36.6491 28.5865 38.0216 20.1898C37.7009 20.1898 38.2986 18.7352 37.9215 14.7717H38.0447Z" fill="#02060C"></path></g><defs><clipPath id="clip0_16023_704"><rect width="143.62" height="35" fill="white" transform="translate(0.333008)"></rect></clipPath></defs></svg>