<svg xmlns="http://www.w3.org/2000/svg" width="152" height="35" viewBox="0 0 152 35" fill="none"><path d="M148.297 27.1081C149.469 27.1081 150.054 27.6872 150.054 28.8453C150.054 29.01 150.042 29.1864 150.019 29.3747H147.129C147.129 30.2164 147.62 30.6373 148.603 30.6373C149.071 30.6373 149.487 30.5851 149.85 30.4805V31.0687C149.487 31.1733 149.045 31.2255 148.525 31.2255C147.11 31.2255 146.403 30.5236 146.403 29.1198C146.403 27.7787 147.035 27.1081 148.297 27.1081ZM147.129 28.7708H149.356C149.34 28.0492 148.988 27.6885 148.297 27.6885C147.565 27.6885 147.176 28.0492 147.129 28.7708Z" fill="#02060C"></path><path d="M139.537 31.2255V27.1081H140.027L140.157 27.6336C140.578 27.2833 141.04 27.1081 141.545 27.1081C142.572 27.1081 143.086 27.6192 143.086 28.6414V31.2255H142.36V28.6296C142.36 28.0179 142.056 27.712 141.447 27.712C141.031 27.712 140.636 27.8858 140.263 28.2335V31.2255H139.537Z" fill="#02060C"></path><path d="M135.953 27.1081V31.2255H135.228V27.1081H135.953ZM135.953 25.618V26.3042H135.228V25.618H135.953Z" fill="#02060C"></path><path d="M131.599 25.618V31.2255H130.874V25.618H131.599Z" fill="#02060C"></path><path d="M122.311 27.8061C122.063 27.7434 121.756 27.712 121.39 27.712C120.514 27.712 120.076 28.1865 120.076 29.1355C120.076 30.1106 120.49 30.5981 121.319 30.5981C121.696 30.5981 122.026 30.5275 122.311 30.3864V27.8061ZM123.037 31.2255C123.037 32.219 122.405 32.7157 121.143 32.7157C120.635 32.7157 120.186 32.6503 119.794 32.5196V31.9314C120.194 32.0621 120.646 32.1275 121.15 32.1275C121.924 32.1275 122.311 31.8268 122.311 31.2255V31.0295C122.003 31.1602 121.671 31.2255 121.315 31.2255C120.013 31.2255 119.362 30.5315 119.362 29.1433C119.362 27.7865 120.049 27.1081 121.421 27.1081C121.978 27.1081 122.516 27.1643 123.037 27.2767V31.2255Z" fill="#02060C"></path><path d="M112.576 29.9825C112.576 29.1381 113.133 28.7159 114.247 28.7159C114.605 28.7159 114.963 28.742 115.321 28.7943V28.4061C115.321 27.9329 114.951 27.6963 114.211 27.6963C113.788 27.6963 113.354 27.7617 112.909 27.8924V27.3042C113.354 27.1735 113.788 27.1081 114.211 27.1081C115.435 27.1081 116.047 27.5342 116.047 28.3865V31.2255H115.639L115.388 30.8177C114.977 31.0896 114.53 31.2255 114.047 31.2255C113.066 31.2255 112.576 30.8112 112.576 29.9825ZM114.247 29.3041C113.617 29.3041 113.302 29.5263 113.302 29.9707C113.302 30.4151 113.55 30.6373 114.047 30.6373C114.549 30.6373 114.973 30.504 115.321 30.2374V29.3825C114.963 29.3302 114.605 29.3041 114.247 29.3041Z" fill="#02060C"></path><path d="M107.793 26.4415H108.248L108.405 27.1081H109.518V27.6963H108.518V30.0609C108.518 30.4452 108.684 30.6373 109.016 30.6373H109.518V31.2255H108.828C108.138 31.2255 107.793 30.8556 107.793 30.1158V26.4415Z" fill="#02060C"></path><path d="M98.5225 31.2255V27.1081H99.0126L99.142 27.6336C99.5028 27.2833 99.9368 27.1081 100.444 27.1081V27.712C99.9525 27.712 99.5538 27.8858 99.2479 28.2335V31.2255H98.5225Z" fill="#02060C"></path><path d="M95.0156 27.1081V31.2255H94.5176L94.3921 30.7001C93.8928 31.0504 93.3909 31.2255 92.8863 31.2255C91.94 31.2255 91.4668 30.7145 91.4668 29.6923V27.1081H92.1923V29.7041C92.1923 30.3158 92.4955 30.6217 93.102 30.6217C93.5177 30.6217 93.9137 30.4478 94.2902 30.1001V27.1081H95.0156Z" fill="#02060C"></path><path d="M84.9589 29.1511C84.9589 30.1419 85.3706 30.6373 86.1941 30.6373C87.0176 30.6373 87.4293 30.1419 87.4293 29.1511C87.4293 28.1813 87.0176 27.6963 86.1941 27.6963C85.3706 27.6963 84.9589 28.1813 84.9589 29.1511ZM84.2334 29.1668C84.2334 27.7943 84.887 27.1081 86.1941 27.1081C87.5012 27.1081 88.1548 27.7943 88.1548 29.1668C88.1548 30.5367 87.5012 31.2216 86.1941 31.2216C84.8922 31.2216 84.2386 30.5367 84.2334 29.1668Z" fill="#02060C"></path><path d="M77.4961 27.1081H78.2843L79.4489 30.3236L80.6528 27.1081H81.4214L79.7117 31.3471C79.4084 32.0948 78.9535 32.5614 78.347 32.747L78.0686 32.2333C78.5287 32.032 78.8633 31.7039 79.0725 31.2491L77.4961 27.1081Z" fill="#02060C"></path><path d="M68.7139 31.2255V27.1081H69.204L69.3334 27.6336C69.6942 27.2833 70.1282 27.1081 70.6353 27.1081V27.712C70.1439 27.712 69.7452 27.8858 69.4393 28.2335V31.2255H68.7139Z" fill="#02060C"></path><path d="M62.2098 29.1511C62.2098 30.1419 62.6216 30.6373 63.4451 30.6373C64.2685 30.6373 64.6803 30.1419 64.6803 29.1511C64.6803 28.1813 64.2685 27.6963 63.4451 27.6963C62.6216 27.6963 62.2098 28.1813 62.2098 29.1511ZM61.4844 29.1668C61.4844 27.7943 62.1379 27.1081 63.4451 27.1081C64.7522 27.1081 65.4057 27.7943 65.4057 29.1668C65.4057 30.5367 64.7522 31.2216 63.4451 31.2216C62.1432 31.2216 61.4896 30.5367 61.4844 29.1668Z" fill="#02060C"></path><path d="M56.5596 31.2255V26.9081C56.5596 25.9121 57.1242 25.4141 58.2536 25.4141C58.5647 25.4141 58.8575 25.4664 59.132 25.5709V26.1591C58.8732 26.0546 58.5791 26.0023 58.2497 26.0023C57.6066 26.0023 57.285 26.2938 57.285 26.8767V27.1081H58.5595V27.6963H57.285V31.2255H56.5596Z" fill="#02060C"></path><path d="M45.7848 31.0295V30.4021C46.2684 30.5589 46.7573 30.6373 47.2514 30.6373C47.9076 30.6373 48.2356 30.4413 48.2356 30.0491C48.2356 29.6831 48.0069 29.5001 47.5494 29.5001H46.9612C46.0724 29.5001 45.6279 29.0949 45.6279 28.2845C45.6279 27.5002 46.1991 27.1081 47.3416 27.1081C47.833 27.1081 48.3206 27.1735 48.8042 27.3042V27.9316C48.3206 27.7747 47.833 27.6963 47.3416 27.6963C46.6566 27.6963 46.3142 27.8924 46.3142 28.2845C46.3142 28.6505 46.5298 28.8335 46.9612 28.8335H47.5494C48.4905 28.8335 48.9611 29.2387 48.9611 30.0491C48.9611 30.8334 48.3912 31.2255 47.2514 31.2255C46.7573 31.2255 46.2684 31.1602 45.7848 31.0295Z" fill="#02060C"></path><path d="M40.8447 26.4415H41.2996L41.4565 27.1081H42.5701V27.6963H41.5702V30.0609C41.5702 30.4452 41.7362 30.6373 42.0682 30.6373H42.5701V31.2255H41.88C41.1898 31.2255 40.8447 30.8556 40.8447 30.1158V26.4415Z" fill="#02060C"></path><path d="M37.2557 27.1081V31.2255H36.5303V27.1081H37.2557ZM37.2557 25.618V26.3042H36.5303V25.618H37.2557Z" fill="#02060C"></path><path d="M145.643 5.22151C149.399 5.22151 151.277 7.07862 151.277 10.7928C151.277 11.3211 151.239 11.887 151.164 12.4907H141.895C141.895 15.1904 143.471 16.5402 146.624 16.5402C148.124 16.5402 149.458 16.3726 150.623 16.0372V17.9236C149.458 18.259 148.041 18.4267 146.372 18.4267C141.836 18.4267 139.568 16.1755 139.568 11.6732C139.568 7.37207 141.593 5.22151 145.643 5.22151ZM141.895 10.5539H149.038C148.988 8.23984 147.856 7.08281 145.643 7.08281C143.295 7.08281 142.046 8.23984 141.895 10.5539Z" fill="#02060C"></path><path d="M136.288 0.442474V18.4267H133.961V0.442474H136.288Z" fill="#02060C"></path><path d="M119.058 5.22151H121.585L125.321 15.5341L129.182 5.22151H131.647L126.163 18.8166C125.191 21.2145 123.732 22.711 121.787 23.3063L120.894 21.6588C122.369 21.0132 123.443 19.961 124.113 18.5022L119.058 5.22151Z" fill="#02060C"></path><path d="M112.124 3.08351H113.583L114.086 5.22149H117.658V7.10795H114.451V14.6915C114.451 15.924 114.983 16.5402 116.048 16.5402H117.658V18.4267H115.444C113.231 18.4267 112.124 17.2403 112.124 14.8676V3.08351Z" fill="#02060C"></path><path d="M95.9003 17.7979V15.6599C97.7868 16.3306 99.8241 16.666 102.012 16.666C105.106 16.666 106.653 15.5341 106.653 13.2704C106.653 11.342 105.513 10.3778 103.232 10.3778H100.918C97.1537 10.3778 95.2715 8.74289 95.2715 5.47304C95.2715 2.0355 97.682 0.316727 102.503 0.316727C104.599 0.316727 106.548 0.568254 108.351 1.07131V3.20929C106.548 2.53855 104.599 2.20318 102.503 2.20318C99.233 2.20318 97.5981 3.29313 97.5981 5.47304C97.5981 7.40141 98.7048 8.3656 100.918 8.3656H103.232C107.064 8.3656 108.98 10.0005 108.98 13.2704C108.98 16.7918 106.657 18.5525 102.012 18.5525C99.8241 18.5525 97.7868 18.3009 95.9003 17.7979Z" fill="#02060C"></path><path d="M89.8018 7.91284C88.8628 7.46009 87.7896 7.23371 86.5822 7.23371C83.9244 7.23371 82.5955 8.64646 82.5955 11.4719C82.5955 14.8173 83.9244 16.4899 86.5822 16.4899C87.7896 16.4899 88.8628 16.3264 89.8018 15.9994V7.91284ZM92.1284 17.6344C90.527 18.1626 88.5525 18.4267 86.205 18.4267C82.2727 18.4267 80.3066 16.1378 80.3066 11.56C80.3066 7.33432 82.3943 5.22149 86.5697 5.22149C87.7099 5.22149 88.7873 5.4311 89.8018 5.85031V0.442474H92.1284V17.6344Z" fill="#02060C"></path><path d="M67.5434 11.7738C67.5434 14.9514 68.8639 16.5402 71.505 16.5402C74.146 16.5402 75.4665 14.9514 75.4665 11.7738C75.4665 8.66324 74.146 7.10797 71.505 7.10797C68.8639 7.10797 67.5434 8.66324 67.5434 11.7738ZM65.2168 11.8241C65.2168 7.42238 67.3129 5.22151 71.505 5.22151C75.6971 5.22151 77.7932 7.42238 77.7932 11.8241C77.7932 16.2174 75.6971 18.4141 71.505 18.4141C67.3296 18.4141 65.2336 16.2174 65.2168 11.8241Z" fill="#02060C"></path><path d="M52.4497 11.7738C52.4497 14.9514 53.7702 16.5402 56.4112 16.5402C59.0523 16.5402 60.3728 14.9514 60.3728 11.7738C60.3728 8.66324 59.0523 7.10797 56.4112 7.10797C53.7702 7.10797 52.4497 8.66324 52.4497 11.7738ZM50.123 11.8241C50.123 7.42238 52.2191 5.22151 56.4112 5.22151C60.6034 5.22151 62.6994 7.42238 62.6994 11.8241C62.6994 16.2174 60.6034 18.4141 56.4112 18.4141C52.2359 18.4141 50.1398 16.2174 50.123 11.8241Z" fill="#02060C"></path><path d="M48.2257 0.442474V2.32893H38.7934V8.36559H47.7855V10.252H38.7934V18.4267H36.4668V0.442474H48.2257Z" fill="#02060C"></path><path d="M16.369 32.6019C12.6948 32.5984 9.14187 31.287 6.34643 28.9026L6.09233 28.6809C3.40726 26.2806 1.64785 23.0156 1.11972 19.4529C0.591593 15.8903 1.32812 12.2553 3.20136 9.17922C5.07461 6.10317 7.9662 3.78049 11.3738 2.61467C14.7815 1.44884 18.4898 1.51353 21.8547 2.7975C25.2196 4.08146 28.0285 6.50358 29.7933 9.64309C31.5581 12.7826 32.1674 16.4411 31.5153 19.9832C30.8633 23.5252 28.9911 26.7269 26.2239 29.0321C23.4568 31.3373 19.9695 32.6004 16.368 32.6019H16.369ZM8.87738 25.7673C10.3052 27.0121 12.0209 27.8812 13.8692 28.296C15.7175 28.7108 17.64 28.6581 19.4629 28.1428C21.2857 27.6275 22.9512 26.6658 24.3088 25.3448C25.6664 24.0237 26.6731 22.3849 27.2379 20.5768C27.8479 18.619 27.9179 16.5327 27.4405 14.5383C26.9631 12.5439 25.9559 10.7155 24.5254 9.24608C23.0949 7.77668 21.2941 6.72086 19.3133 6.19012C17.3324 5.65937 15.245 5.6734 13.2715 6.23073C11.2979 6.78806 9.5115 7.86799 8.10088 9.35649C6.69025 10.845 5.70777 12.6868 5.25719 14.6874C4.80661 16.688 4.90465 18.7732 5.54097 20.7227C6.17728 22.6722 7.32825 24.4137 8.87232 25.7633L8.87738 25.7673Z" fill="#02060C"></path><path d="M8.7602 25.8898C6.60538 24.0088 5.22388 21.3962 4.88242 18.5563C4.54096 15.7165 5.26376 12.8508 6.91127 10.5127C8.55878 8.17451 11.0142 6.52965 13.8033 5.89569C16.5925 5.26173 19.5176 5.68363 22.0139 7.07992C24.5103 8.47622 26.4008 10.7479 27.3204 13.4563C28.24 16.1647 28.1236 19.1179 26.9935 21.7455C25.8635 24.3731 23.8 26.4888 21.2015 27.6842C18.603 28.8796 15.6537 29.0699 12.9231 28.2183C11.3872 27.7434 9.96869 26.95 8.7602 25.8898ZM6.33049 28.6657C8.80428 30.8288 11.9107 32.1348 15.1869 32.3891C18.4632 32.6434 21.7339 31.8325 24.5119 30.0772C27.2899 28.3218 29.4264 25.716 30.6032 22.6478C31.78 19.5796 31.9341 16.2134 31.0426 13.0506C30.151 9.88773 28.2615 7.09755 25.6555 5.09572C23.0495 3.09389 19.8666 1.98753 16.5808 1.94147C13.295 1.89541 10.0823 2.9121 7.4212 4.84009C4.76013 6.76809 2.79313 9.50419 1.81326 12.6408C0.929727 15.4621 0.886379 18.4796 1.6885 21.3251C2.49062 24.1706 4.10353 26.7212 6.33049 28.6657Z" fill="#02060C"></path><path d="M6.12937 22.6066C4.70968 19.8916 4.42507 16.7243 5.338 13.7997C6.25093 10.8751 8.28682 8.43212 10.9989 7.00688C12.4196 6.25595 13.9826 5.81301 15.586 5.70698C17.7936 5.56023 19.997 6.0496 21.9349 7.11706C23.8728 8.18453 25.4639 9.78532 26.5197 11.7296C27.0475 10.1579 27.3933 8.53085 27.5503 6.88033C25.0392 4.16815 21.6284 2.46051 17.9524 2.07511C14.2764 1.68972 10.5856 2.65282 7.56658 4.78522C4.54759 6.91763 2.40602 10.0741 1.54032 13.6675C0.674625 17.2608 1.14374 21.0463 2.8604 24.3196C3.0433 24.6692 3.23802 25.0066 3.44454 25.3319C5.1149 25.6864 6.82456 25.8202 8.52972 25.7298C7.55635 24.8342 6.74438 23.7777 6.12937 22.6066Z" fill="#02060C"></path><path d="M13.2311 25.5597C10.9889 24.692 9.16747 22.9934 8.14569 20.817C7.1239 18.6407 6.98039 16.1543 7.74499 13.8749C7.69235 13.9974 7.64375 14.1219 7.5901 14.2484C7.13881 15.3945 6.9186 16.6186 6.94213 17.8501C6.96567 19.0816 7.23248 20.2963 7.72722 21.4243C8.22195 22.5524 8.93485 23.5714 9.8249 24.4229C10.715 25.2744 11.7646 25.9415 12.9134 26.3858C14.0622 26.8301 15.2876 27.0429 16.5189 27.0119C17.7503 26.9809 18.9634 26.7067 20.0884 26.2051C21.2134 25.7035 22.2281 24.9844 23.0741 24.0892C23.9202 23.194 24.5809 22.1404 25.0182 20.9889C25.0678 20.8603 25.1144 20.7307 25.1579 20.6011C24.1907 22.8042 22.4109 24.5493 20.1892 25.4729C17.9675 26.3966 15.4751 26.4277 13.2311 25.5597Z" fill="#02060C"></path><path opacity="0.1" d="M13.2311 25.5597C10.9889 24.692 9.16747 22.9934 8.14569 20.817C7.1239 18.6407 6.98039 16.1543 7.74499 13.8749C7.69235 13.9974 7.64375 14.1219 7.5901 14.2484C7.13881 15.3945 6.9186 16.6186 6.94213 17.8501C6.96567 19.0816 7.23248 20.2963 7.72722 21.4243C8.22195 22.5524 8.93485 23.5714 9.8249 24.4229C10.715 25.2744 11.7646 25.9415 12.9134 26.3858C14.0622 26.8301 15.2876 27.0429 16.5189 27.0119C17.7503 26.9809 18.9634 26.7067 20.0884 26.2051C21.2134 25.7035 22.2281 24.9844 23.0741 24.0892C23.9202 23.194 24.5809 22.1404 25.0182 20.9889C25.0678 20.8603 25.1144 20.7307 25.1579 20.6011C24.1907 22.8042 22.4109 24.5493 20.1892 25.4729C17.9675 26.3966 15.4751 26.4277 13.2311 25.5597Z" fill="#02060C"></path><path opacity="0.1" d="M16.369 32.6019C12.6948 32.5984 9.14187 31.287 6.34643 28.9026L6.09233 28.6809C3.40726 26.2806 1.64785 23.0156 1.11972 19.4529C0.591593 15.8903 1.32812 12.2553 3.20136 9.17922C5.07461 6.10317 7.9662 3.78049 11.3738 2.61467C14.7815 1.44884 18.4898 1.51353 21.8547 2.7975C25.2196 4.08146 28.0285 6.50358 29.7933 9.64309C31.5581 12.7826 32.1674 16.4411 31.5153 19.9832C30.8633 23.5252 28.9911 26.7269 26.2239 29.0321C23.4568 31.3373 19.9695 32.6004 16.368 32.6019H16.369ZM8.87738 25.7673C10.3052 27.0121 12.0209 27.8812 13.8692 28.296C15.7175 28.7108 17.64 28.6581 19.4629 28.1428C21.2857 27.6275 22.9512 26.6658 24.3088 25.3448C25.6664 24.0237 26.6731 22.3849 27.2379 20.5768C27.8479 18.619 27.9179 16.5327 27.4405 14.5383C26.9631 12.5439 25.9559 10.7155 24.5254 9.24608C23.0949 7.77668 21.2941 6.72086 19.3133 6.19012C17.3324 5.65937 15.245 5.6734 13.2715 6.23073C11.2979 6.78806 9.5115 7.86799 8.10088 9.35649C6.69025 10.845 5.70777 12.6868 5.25719 14.6874C4.80661 16.688 4.90465 18.7732 5.54097 20.7227C6.17728 22.6722 7.32825 24.4137 8.87232 25.7633L8.87738 25.7673Z" fill="#02060C"></path><path d="M18.2908 16.4352C17.8322 17.8525 16.8613 20.5667 17.6135 22.0782C18.5247 23.5765 21.9819 22.0427 23.375 19.7811C24.772 17.731 24.1677 15.2993 22.6177 14.6635C23.9885 9.90533 22.8708 4.5134 18.9458 0.287726C18.6299 -0.0645822 17.9223 -0.14456 17.6135 0.340369C17.3047 0.825299 17.4748 1.53093 17.7583 1.79415C21.3563 5.15929 22.8384 9.87799 21.8817 14.456C20.2042 14.3375 18.8172 15.1191 18.2908 16.4352Z" fill="#02060C"></path><path d="M13.5295 19.8448C13.5318 19.8392 13.5339 19.8335 13.5356 19.8276V19.8195C13.9405 17.9031 16.0564 15.3651 16.0534 15.2395C15.9066 15.0492 13.6024 17.5103 12.8846 19.4439L12.4797 19.2141C13.0679 17.0881 15.5229 14.4144 15.5168 14.301C15.367 14.0986 12.7247 16.6872 11.8206 18.8385L11.4217 18.6097C12.1911 16.2641 14.9843 13.4658 14.9803 13.3626C14.8314 13.151 11.85 15.8652 10.7627 18.2321L10.3577 18.0013C11.3124 15.442 14.4447 12.5132 14.4396 12.419C14.2908 12.1983 10.9702 15.0411 9.69867 17.6237C9.69158 17.6338 9.68652 17.6449 9.67944 17.6551C9.06391 19.0511 9.36459 20.514 10.383 21.0496C9.12668 25.5607 10.1927 30.6904 13.9395 34.7643C14.2432 35.1075 14.9327 35.1105 15.2414 34.5415C15.5502 33.9726 15.4075 33.2335 15.1402 32.9946C11.8064 29.9271 10.3628 25.5729 11.1747 21.2814C12.3217 21.334 13.1165 20.7256 13.5295 19.8448Z" fill="#02060C"></path><path opacity="0.1" d="M18.2908 16.4352C17.8322 17.8525 16.8613 20.5667 17.6135 22.0782C18.5247 23.5765 21.9819 22.0427 23.375 19.7811C24.772 17.731 24.1677 15.2993 22.6177 14.6635C23.9885 9.90533 22.8708 4.5134 18.9458 0.287726C18.6299 -0.0645822 17.9223 -0.14456 17.6135 0.340369C17.3047 0.825299 17.4748 1.53093 17.7583 1.79415C21.3563 5.15929 22.8384 9.87799 21.8817 14.456C20.2042 14.3375 18.8172 15.1191 18.2908 16.4352Z" fill="#02060C"></path><path opacity="0.1" d="M13.5295 19.8448C13.5318 19.8392 13.5339 19.8335 13.5356 19.8276V19.8195C13.9405 17.9031 16.0564 15.3651 16.0534 15.2395C15.9066 15.0492 13.6024 17.5103 12.8846 19.4439L12.4797 19.2141C13.0679 17.0881 15.5229 14.4144 15.5168 14.301C15.367 14.0986 12.7247 16.6872 11.8206 18.8385L11.4217 18.6097C12.1911 16.2641 14.9843 13.4658 14.9803 13.3626C14.8314 13.151 11.85 15.8652 10.7627 18.2321L10.3577 18.0013C11.3124 15.442 14.4447 12.5132 14.4396 12.419C14.2908 12.1983 10.9702 15.0411 9.69867 17.6237C9.69158 17.6338 9.68652 17.6449 9.67944 17.6551C9.06391 19.0511 9.36459 20.514 10.383 21.0496C9.12668 25.5607 10.1927 30.6904 13.9395 34.7643C14.2432 35.1075 14.9327 35.1105 15.2414 34.5415C15.5502 33.9726 15.4075 33.2335 15.1402 32.9946C11.8064 29.9271 10.3628 25.5729 11.1747 21.2814C12.3217 21.334 13.1165 20.7256 13.5295 19.8448Z" fill="#02060C"></path></svg>